<?xml version="1.0" standalone="no"?>
<!DOCTYPE svg PUBLIC "-//W3C//DTD SVG 20010904//EN"
 "http://www.w3.org/TR/2001/REC-SVG-20010904/DTD/svg10.dtd">
<svg version="1.0" xmlns="http://www.w3.org/2000/svg"
 width="700.000000pt" height="700.000000pt" viewBox="0 0 700.000000 700.000000"
 preserveAspectRatio="xMidYMid meet">
<metadata>
Created by potrace 1.11, written by Peter Selinger 2001-2013
</metadata>
<g transform="translate(0.000000,700.000000) scale(0.100000,-0.100000)"
fill="#000000" stroke="none">
<path d="M4090 6738 c-28 -46 -105 -166 -170 -268 -66 -102 -138 -214 -160
-250 -165 -263 -264 -410 -296 -437 -148 -130 -461 -292 -694 -358 -121 -35
-163 -36 -315 -5 -96 20 -279 56 -320 64 -11 2 -31 7 -45 10 -14 3 -36 8 -50
10 -14 2 -97 19 -185 36 -88 18 -169 34 -180 36 -11 2 -31 6 -45 9 -32 7 -67
14 -103 20 -15 3 -59 12 -98 20 -78 17 -110 19 -107 8 1 -5 -4 -33 -10 -63 -7
-30 -14 -64 -16 -75 -3 -11 -17 -80 -32 -153 -15 -73 -25 -135 -22 -137 3 -3
18 -7 34 -10 16 -2 106 -20 199 -40 94 -19 183 -38 199 -41 16 -3 32 -6 35 -8
3 -2 22 -7 41 -10 19 -3 44 -8 55 -10 11 -2 79 -16 150 -31 72 -14 146 -30
165 -35 19 -5 49 -11 65 -14 17 -3 118 -24 225 -47 107 -22 206 -43 220 -45
14 -3 32 -7 40 -9 8 -2 31 -7 50 -10 19 -3 51 -10 70 -15 19 -5 49 -11 65 -14
17 -3 95 -19 175 -36 128 -27 298 -63 356 -74 10 -3 39 -9 64 -15 25 -5 56
-12 70 -15 14 -2 50 -10 80 -16 30 -6 66 -13 80 -16 14 -2 57 -11 95 -20 39
-8 79 -16 90 -19 31 -6 449 -94 555 -116 52 -11 104 -22 115 -24 11 -3 52 -11
90 -19 247 -52 313 -66 335 -70 14 -2 45 -9 70 -15 25 -5 56 -12 70 -15 14 -2
57 -11 95 -20 39 -8 82 -17 95 -19 14 -3 61 -13 105 -22 44 -9 91 -19 105 -21
14 -3 32 -7 40 -9 8 -2 30 -7 49 -10 19 -3 38 -8 43 -11 4 -3 8 -3 8 1 0 3 9
49 21 101 11 53 22 106 25 118 6 31 23 115 40 194 4 18 3 32 -2 31 -5 -1 -20
1 -34 4 -14 4 -140 32 -280 62 -140 31 -293 64 -340 75 -138 32 -541 120 -572
125 -150 27 -398 219 -585 453 -55 68 -116 177 -127 225 -8 34 -12 26 157 292
269 423 317 495 323 495 4 0 365 -149 449 -185 17 -7 125 -52 240 -99 116 -48
226 -94 245 -102 31 -13 36 -20 35 -47 -2 -53 24 -147 55 -202 116 -203 369
-272 575 -158 65 36 121 94 160 167 130 237 1 534 -263 605 -45 13 -148 15
-197 6 -46 -9 -132 -51 -176 -86 l-40 -31 -157 65 c-86 36 -294 122 -462 191
-168 70 -314 130 -325 135 -70 31 -244 101 -253 101 -6 0 -34 -37 -62 -82z"/>
<path d="M1460 2168 l0 -1798 2023 0 2023 0 0 1797 -1 1798 -2022 0 -2023 0 0
-1797z m3596 -1 l1 -1347 -61 0 c-96 -1 -3028 -1 -3058 0 l-28 0 0 1348 0
1347 1573 0 1572 0 1 -1348z"/>
<path d="M2550 3063 c-75 -11 -157 -80 -179 -152 -8 -27 -11 -246 -11 -753 l0
-714 25 -50 c40 -81 112 -124 204 -124 79 1 145 40 192 117 l24 38 2 730 c3
712 2 731 -17 774 -43 94 -139 147 -240 134z"/>
<path d="M3417 3054 c-63 -19 -132 -87 -147 -144 -8 -29 -11 -258 -11 -751 0
-695 1 -710 21 -757 36 -81 111 -132 198 -132 97 0 163 41 209 132 21 42 22
44 22 749 1 783 2 774 -63 841 -63 65 -146 87 -229 62z"/>
<path d="M4340 3060 c-80 -15 -151 -79 -171 -155 -13 -45 -17 -1377 -5 -1457
25 -169 247 -237 374 -115 69 66 66 26 68 812 3 793 4 781 -62 849 -57 59
-126 81 -204 66z"/>
</g>
</svg>
