<?xml version="1.0" encoding="utf-8"?>
<svg viewBox="0 0 24 24" xmlns="http://www.w3.org/2000/svg">
  <path d="M 9.63 14.261 L 9.63 18.885 C 9.63 19.311 9.285 19.656 8.86 19.656 C 8.434 19.656 8.089 19.311 8.089 18.885 L 8.089 14.261 C 8.089 13.835 8.434 13.49 8.86 13.49 C 9.285 13.49 9.63 13.835 9.63 14.261 Z M 15.026 13.49 C 14.6 13.49 14.255 13.835 14.255 14.261 L 14.255 18.885 C 14.255 19.311 14.6 19.656 15.026 19.656 C 15.451 19.656 15.796 19.311 15.796 18.885 L 15.796 14.261 C 15.796 13.835 15.451 13.49 15.026 13.49 Z M 11.943 13.49 C 11.517 13.49 11.172 13.835 11.172 14.261 L 11.172 18.885 C 11.172 19.311 11.517 19.656 11.943 19.656 C 12.368 19.656 12.713 19.311 12.713 18.885 L 12.713 14.261 C 12.713 13.835 12.368 13.49 11.943 13.49 Z M 15.282 6.843 C 14.603 6.702 12.829 5.008 12.971 4.329 L 12.234 3.711 C 12.092 4.391 9.49 5.636 8.811 5.493 L 4.55 4.646 L 4.235 6.155 L 19.335 9.315 L 19.65 7.805 L 15.282 6.843 Z M 18.88 10.407 L 18.88 22.739 L 5.006 22.739 L 5.006 10.407 L 18.88 10.407 Z M 17.338 21.197 L 17.338 11.948 L 6.547 11.948 L 6.547 21.197 L 17.338 21.197 Z" style="fill: rgb(255, 64, 25);"/>
  <line style="stroke: rgb(255, 64, 25);" x1="11.372321386920554" y1="5.973595398882241" x2="14.638902566276528" y2="0.8731449850521518"/>
  <line style="fill: rgb(255, 64, 25); stroke: rgb(255, 64, 25);" x1="14.041" y1="1.066" x2="19.7" y2="3.41"/>
  <circle style="fill: rgb(255, 64, 25);" cx="19.392" cy="3.319" r="1.447"/>
</svg>